<svg width="100" height="25" viewBox="0 0 1035 263" fill="none" xmlns="http://www.w3.org/2000/svg">
<path d="M310.987 262.236C326.921 262.297 342.666 258.809 357.071 252.027C370.905 245.77 383.079 236.382 392.622 224.61V255.196H459.131V7.42826H392.622V135.321C392.622 155.371 387.33 171.337 376.748 183.22C371.728 188.995 365.483 193.588 358.463 196.667C351.442 199.746 343.823 201.233 336.154 201.022C321.712 201.022 310.203 197.01 301.629 188.984C293.054 180.958 288.781 168.906 288.81 152.826V7.42826H222.301V176.456C222.301 204.546 230.277 225.865 246.23 240.413C262.182 254.962 283.768 262.236 310.987 262.236ZM504.445 255.196H570.954V127.303C570.954 107.224 576.245 91.2581 586.828 79.4039C591.848 73.6272 598.092 69.0319 605.112 65.9496C612.132 62.8673 619.752 61.3749 627.421 61.5802C641.864 61.5802 653.365 65.593 661.926 73.6187C670.486 81.6443 674.759 93.697 674.745 109.777V255.238H741.253V86.1251C741.253 58.0353 733.277 36.7162 717.325 22.1679C701.372 7.61967 679.794 0.345572 652.589 0.345572C636.642 0.312196 620.889 3.82948 606.484 10.64C592.67 16.8808 580.505 26.2383 570.954 37.9711V7.42826H504.445V255.196ZM903.498 200.98C883.002 200.98 866.544 194.294 854.124 180.923C841.704 167.552 835.487 150.997 835.472 131.259C835.472 111.549 841.689 95.0015 854.124 81.616C866.558 68.2304 883.016 61.5376 903.498 61.5376C923.994 61.5376 940.452 68.2304 952.872 81.616C965.292 95.0015 971.538 111.563 971.609 131.301C971.609 151.039 965.399 167.594 952.979 180.965C940.559 194.337 924.065 201.008 903.498 200.98ZM889.889 262.193C908.405 262.193 923.524 259.683 935.246 254.664C947.536 249.291 958.786 241.819 968.49 232.586V255.153H1035V7.42826H968.49V29.9951C961.439 20.9627 951.277 13.7736 938.002 8.42792C923.973 2.92714 909.003 0.196457 893.927 0.388088C871.679 0.257484 849.847 6.38422 830.943 18.063C811.871 29.6817 796.229 46.1197 785.607 65.7064C774.497 85.8257 768.766 108.449 768.964 131.408C768.964 157.498 774.761 180.49 786.355 200.384C797.091 219.431 812.742 235.277 831.691 246.284C849.317 256.665 869.409 262.172 889.889 262.236V262.193ZM0 255.153H193.074V194.961H71.5509V7.42826H0V255.153Z" fill="white"/>
</svg>
